<svg width="400" height="262" viewBox="0 0 400 262" fill="none" xmlns="http://www.w3.org/2000/svg">
<path d="M212.027 238.274L176.172 189.756H161.801L205.339 134.408H232.088L192.961 184.064L192.676 173.963L240.198 238.274H212.027ZM143.732 238.274V134.408H167.066V238.274H143.732Z" fill="#193CB8"/>
<path d="M96.7743 238.274V134.408H120.108V238.274H96.7743Z" fill="#193CB8"/>
<path d="M29.1677 238.274V151.909H52.5018V238.274H29.1677ZM0 154.755V134.408H81.8118V154.755H0Z" fill="#193CB8"/>
<path d="M372.467 95.9924V0.782532H393.465V95.9924H372.467ZM363.99 16.1726V0.782532H393.465V16.1726H363.99Z" fill="#F3F3F3"/>
<path d="M337.285 95.9924V74.8636H333.763V51.9089C333.763 48.257 332.894 45.5181 331.155 43.6922C329.416 41.8662 326.633 40.9533 322.808 40.9533C320.895 40.9533 318.373 40.9967 315.243 41.0837C312.113 41.1706 308.896 41.3011 305.592 41.475C302.288 41.6489 299.288 41.8228 296.592 41.9967V24.3893C298.592 24.2154 300.94 24.0415 303.635 23.8676C306.331 23.6937 309.113 23.5633 311.982 23.4764C314.852 23.3894 317.547 23.3459 320.069 23.3459C327.373 23.3459 333.503 24.3893 338.459 26.4761C343.502 28.5629 347.328 31.7366 349.936 35.9971C352.545 40.1707 353.849 45.5616 353.849 52.1698V95.9924H337.285ZM314.461 97.8184C309.331 97.8184 304.809 96.9054 300.896 95.0794C297.071 93.2535 294.071 90.645 291.897 87.254C289.723 83.776 288.636 79.6459 288.636 74.8636C288.636 69.6467 289.984 65.3861 292.68 62.082C295.375 58.691 299.157 56.2129 304.027 54.6478C308.896 52.9958 314.504 52.1698 320.851 52.1698H336.111V63.7776H320.721C317.069 63.7776 314.243 64.6905 312.243 66.5165C310.33 68.2555 309.374 70.6466 309.374 73.6898C309.374 76.5592 310.33 78.9068 312.243 80.7327C314.243 82.4717 317.069 83.3412 320.721 83.3412C323.069 83.3412 325.155 82.95 326.981 82.1674C328.894 81.2979 330.459 79.8632 331.677 77.8634C332.894 75.8636 333.589 73.0812 333.763 69.5162L338.72 74.7332C338.285 79.6893 337.067 83.8629 335.068 87.254C333.155 90.645 330.459 93.2535 326.981 95.0794C323.59 96.9054 319.417 97.8184 314.461 97.8184Z" fill="#F3F3F3"/>
<path d="M270.294 96.9055C263.077 96.9055 257.251 96.0361 252.817 94.2971C248.382 92.4711 245.122 89.4713 243.035 85.2978C241.035 81.0372 240.035 75.2985 240.035 68.0817V5.2171H259.468V68.8643C259.468 72.2553 260.338 74.8638 262.077 76.6897C263.903 78.4287 266.468 79.2982 269.772 79.2982H280.336V96.9055H270.294ZM229.21 39.7796V24.5199H280.336V39.7796H229.21Z" fill="#F3F3F3"/>
<path d="M181.267 95.9925V24.5198H197.831V55.1696H197.439C197.439 45.0834 199.569 37.3014 203.83 31.8236C208.178 26.3458 214.438 23.6069 222.611 23.6069H225.35V41.6055H220.133C214.394 41.6055 209.96 43.1705 206.83 46.3007C203.7 49.344 202.135 53.7784 202.135 59.604V95.9925H181.267Z" fill="#F3F3F3"/>
<path d="M127.314 98.4706C121.054 98.4706 115.489 97.5142 110.62 95.6013C105.751 93.6014 101.621 90.906 98.2298 87.5149C94.9257 84.1239 92.4041 80.2546 90.6651 75.9072C88.9261 71.4727 88.0566 66.8209 88.0566 61.9517V58.952C88.0566 53.9958 88.9261 49.3006 90.6651 44.8661C92.4911 40.3447 95.0996 36.3885 98.4906 32.9975C101.969 29.6065 106.142 26.9545 111.011 25.0416C115.881 23.0418 121.315 22.0418 127.314 22.0418C133.488 22.0418 138.966 23.0418 143.748 25.0416C148.617 26.9545 152.747 29.6065 156.138 32.9975C159.529 36.3885 162.138 40.3447 163.964 44.8661C165.79 49.3006 166.703 53.9958 166.703 58.952V61.9517C166.703 66.8209 165.833 71.4727 164.094 75.9072C162.355 80.2546 159.79 84.1239 156.399 87.5149C153.095 90.906 149.008 93.6014 144.139 95.6013C139.27 97.5142 133.662 98.4706 127.314 98.4706ZM127.314 80.8633C131.401 80.8633 134.792 79.9938 137.488 78.2548C140.183 76.5158 142.226 74.0812 143.618 70.951C145.096 67.8208 145.835 64.3429 145.835 60.5171C145.835 56.4304 145.096 52.8655 143.618 49.8223C142.139 46.6921 140.009 44.214 137.227 42.3881C134.531 40.5621 131.227 39.6491 127.314 39.6491C123.489 39.6491 120.185 40.5621 117.402 42.3881C114.62 44.214 112.49 46.6921 111.011 49.8223C109.62 52.8655 108.925 56.4304 108.925 60.5171C108.925 64.3429 109.62 67.8208 111.011 70.951C112.403 74.0812 114.489 76.5158 117.272 78.2548C120.054 79.9938 123.402 80.8633 127.314 80.8633Z" fill="#F3F3F3"/>
<path d="M26.3455 68.7337V50.2134H43.4311C46.7352 50.2134 49.561 49.5613 51.9087 48.2571C54.3433 46.9528 56.2127 45.1269 57.5169 42.7792C58.8212 40.3447 59.4733 37.5623 59.4733 34.4321C59.4733 31.128 58.8212 28.3021 57.5169 25.9545C56.2127 23.5199 54.3433 21.6939 51.9087 20.4766C49.561 19.1724 46.7352 18.5203 43.4311 18.5203H26.3455V0H42.3877C50.474 0 57.3865 1.34772 63.1252 4.04316C68.9508 6.7386 73.3853 10.5644 76.4285 15.5205C79.5587 20.4767 81.1238 26.4327 81.1238 33.3887V35.4755C81.1238 42.2575 79.5587 48.1701 76.4285 53.2132C73.3853 58.1693 68.9508 61.9951 63.1252 64.6906C57.3865 67.386 50.474 68.7337 42.3877 68.7337H26.3455ZM7.56433 95.9924V0H28.954V95.9924H7.56433Z" fill="#F3F3F3"/>
<path d="M334.788 143.42H352.573C355.718 143.42 358.733 144.669 360.957 146.892C363.18 149.116 364.43 152.132 364.43 155.276V238.274" stroke="#F3F3F3" stroke-width="13" stroke-linecap="round" stroke-linejoin="round"/>
<path d="M269.575 238.274H287.361" stroke="#F3F3F3" stroke-width="13" stroke-linecap="round" stroke-linejoin="round"/>
<path d="M334.788 238.274H388.143" stroke="#F3F3F3" stroke-width="13" stroke-linecap="round" stroke-linejoin="round"/>
<path d="M317.003 190.847V190.891" stroke="#F3F3F3" stroke-width="13" stroke-linecap="round" stroke-linejoin="round"/>
<path d="M334.788 146.751V242.536C334.787 243.437 334.582 244.325 334.187 245.135C333.792 245.944 333.218 246.653 332.508 247.207C331.799 247.761 330.972 248.146 330.091 248.334C329.21 248.521 328.298 248.505 327.425 248.287L287.361 238.274V152.68C287.361 150.036 288.245 147.468 289.872 145.384C291.5 143.3 293.777 141.82 296.342 141.179L320.056 135.25C321.803 134.813 323.627 134.78 325.389 135.154C327.151 135.527 328.805 136.297 330.225 137.405C331.645 138.513 332.794 139.93 333.584 141.549C334.375 143.167 334.787 144.95 334.788 146.751Z" stroke="#F3F3F3" stroke-width="13" stroke-linecap="round" stroke-linejoin="round"/>
</svg>
