<svg width="426" height="315" viewBox="0 0 426 315" fill="none" xmlns="http://www.w3.org/2000/svg">
<path d="M378.651 292.711V187.115C378.648 185.367 377.94 183.692 376.704 182.456C375.468 181.221 373.794 180.532 372.046 180.531H349.415C344.731 180.531 340.926 176.725 340.926 172.041C340.926 167.358 344.731 163.552 349.415 163.552H372.046C378.292 163.554 384.275 166.051 388.693 170.468C393.109 174.885 395.606 180.869 395.608 187.115V292.711C395.606 297.394 391.802 301.18 387.119 301.18C382.438 301.178 378.652 297.392 378.651 292.711Z" fill="#F3F3F3"/>
<path d="M289.087 284.219C293.769 284.222 297.556 288.026 297.556 292.708C297.556 297.39 293.769 301.194 289.087 301.197H266.457C261.773 301.197 257.968 297.392 257.968 292.708C257.968 288.024 261.773 284.219 266.457 284.219H289.087Z" fill="#F3F3F3"/>
<path d="M417.287 284.219C421.97 284.219 425.776 288.024 425.776 292.708C425.776 297.392 421.97 301.197 417.287 301.197H349.415C344.731 301.197 340.926 297.392 340.926 292.708C340.926 288.024 344.731 284.219 349.415 284.219H417.287Z" fill="#F3F3F3"/>
<path d="M318.301 232.437V232.375C318.301 227.691 322.106 223.886 326.79 223.886C331.474 223.886 335.279 227.691 335.279 232.375V232.437C335.276 237.118 331.472 240.905 326.79 240.905C322.108 240.905 318.304 237.118 318.301 232.437Z" fill="#F3F3F3"/>
<path d="M357.906 298.143C357.904 300.573 357.336 302.978 356.27 305.162C355.203 307.346 353.651 309.256 351.736 310.753C349.817 312.251 347.573 313.29 345.193 313.796C342.815 314.3 340.346 314.26 337.987 313.672L287.032 300.938C283.259 299.995 280.597 296.606 280.593 292.718V183.83C280.593 178.575 282.369 173.457 285.603 169.315C288.835 165.181 293.351 162.246 298.44 160.971L328.608 153.414C332.078 152.546 335.71 152.487 339.209 153.227C342.711 153.969 346.015 155.498 348.837 157.7C351.657 159.901 353.933 162.725 355.504 165.94C357.076 169.16 357.903 172.698 357.906 176.272V298.143ZM297.571 286.072L340.927 296.901V176.293L340.762 174.802C340.65 174.315 340.483 173.843 340.265 173.394C339.825 172.495 339.19 171.692 338.401 171.075C337.614 170.461 336.687 170.042 335.71 169.833C334.729 169.625 333.701 169.631 332.728 169.874L302.561 177.411C301.135 177.768 299.864 178.593 298.958 179.751C298.052 180.911 297.571 182.357 297.571 183.83V286.072Z" fill="#F3F3F3"/>
<path d="M312.416 117.875C303.573 117.875 295.961 116.084 289.58 112.502C283.236 108.882 278.348 103.77 274.915 97.1655C271.483 90.5236 269.766 82.669 269.766 73.6017C269.766 64.7583 271.483 56.997 274.915 50.3177C278.348 43.6385 283.181 38.4332 289.412 34.7018C295.681 30.9704 303.032 29.1047 311.465 29.1047C317.136 29.1047 322.416 30.0189 327.304 31.8473C332.23 33.6384 336.521 36.3436 340.178 39.9631C343.872 43.5825 346.745 48.1349 348.797 53.62C350.85 59.0679 351.876 65.4486 351.876 72.7621V79.3107H279.281V64.5344H329.431C329.431 61.1015 328.685 58.0604 327.192 55.4111C325.7 52.7618 323.629 50.6909 320.98 49.1983C318.368 47.6684 315.327 46.9035 311.856 46.9035C308.237 46.9035 305.028 47.7431 302.229 49.4222C299.468 51.064 297.304 53.2842 295.737 56.0828C294.17 58.844 293.367 61.9224 293.33 65.318V79.3667C293.33 83.6205 294.114 87.296 295.681 90.393C297.285 93.4901 299.543 95.8782 302.453 97.5573C305.364 99.2364 308.815 100.076 312.808 100.076C315.457 100.076 317.883 99.7029 320.084 98.9566C322.286 98.2103 324.17 97.0909 325.737 95.5983C327.304 94.1058 328.498 92.2774 329.319 90.1132L351.372 91.5684C350.253 96.867 347.958 101.494 344.487 105.449C341.055 109.367 336.614 112.427 331.166 114.628C325.756 116.793 319.506 117.875 312.416 117.875Z" fill="#F3F3F3"/>
<path d="M258.629 30.2243V48.135H206.855V30.2243H258.629ZM218.609 9.62692H242.453V89.7775C242.453 91.979 242.789 93.6955 243.46 94.9268C244.132 96.1209 245.065 96.9604 246.259 97.4455C247.49 97.9306 248.908 98.1731 250.513 98.1731C251.632 98.1731 252.752 98.0799 253.871 97.8933C254.99 97.6694 255.849 97.5015 256.446 97.3895L260.196 115.132C259.002 115.506 257.323 115.935 255.158 116.42C252.994 116.942 250.364 117.259 247.266 117.371C241.52 117.595 236.483 116.83 232.154 115.076C227.863 113.323 224.524 110.599 222.135 106.905C219.747 103.211 218.572 98.5463 218.609 92.9119V9.62692Z" fill="#F3F3F3"/>
<path d="M145.987 117.819C140.502 117.819 135.614 116.867 131.322 114.964C127.031 113.024 123.636 110.169 121.136 106.401C118.673 102.595 117.442 97.8558 117.442 92.1841C117.442 87.4079 118.319 83.3966 120.072 80.1503C121.826 76.904 124.214 74.292 127.237 72.3144C130.259 70.3367 133.692 68.8442 137.535 67.8367C141.416 66.8292 145.483 66.1202 149.737 65.7098C154.737 65.1874 158.767 64.7023 161.827 64.2545C164.886 63.7694 167.107 63.0605 168.487 62.1276C169.868 61.1948 170.558 59.8142 170.558 57.9858V57.6499C170.558 54.1051 169.439 51.3625 167.2 49.4222C164.998 47.4819 161.864 46.5117 157.797 46.5117C153.506 46.5117 150.091 47.4632 147.554 49.3662C145.017 51.2319 143.338 53.5827 142.517 56.4186L120.464 54.6275C121.584 49.4035 123.785 44.8885 127.069 41.0825C130.352 37.2392 134.587 34.2913 139.774 32.2391C144.998 30.1495 151.043 29.1047 157.909 29.1047C162.685 29.1047 167.256 29.6644 171.622 30.7838C176.025 31.9033 179.924 33.6384 183.32 35.9891C186.752 38.3399 189.458 41.3624 191.435 45.0565C193.413 48.7132 194.402 53.0976 194.402 58.2096V116.196H171.79V104.274H171.118C169.737 106.96 167.89 109.33 165.577 111.382C163.263 113.397 160.483 114.983 157.237 116.14C153.991 117.259 150.241 117.819 145.987 117.819ZM152.815 101.363C156.323 101.363 159.42 100.673 162.107 99.2924C164.793 97.8745 166.901 95.9715 168.431 93.5834C169.961 91.1953 170.726 88.49 170.726 85.4676V76.3443C169.98 76.8294 168.954 77.2771 167.648 77.6876C166.379 78.0607 164.942 78.4152 163.338 78.751C161.733 79.0495 160.129 79.3294 158.524 79.5906C156.92 79.8145 155.465 80.0197 154.159 80.2063C151.36 80.6167 148.916 81.2697 146.826 82.1653C144.737 83.0608 143.114 84.2735 141.957 85.8034C140.8 87.2959 140.222 89.1616 140.222 91.4005C140.222 94.6468 141.397 97.1282 143.748 98.8446C146.136 100.524 149.159 101.363 152.815 101.363Z" fill="#F3F3F3"/>
<path d="M78.0236 38.62C77.2401 35.8961 76.1393 33.4894 74.7214 31.3998C73.3034 29.2729 71.5683 27.4818 69.5161 26.0266C67.5011 24.534 65.1876 23.3959 62.5756 22.6123C60.001 21.8287 57.1464 21.4369 54.0121 21.4369C48.1538 21.4369 43.0044 22.8922 38.5641 25.8027C34.161 28.7132 30.7281 32.9483 28.2654 38.5081C25.8027 44.0306 24.5713 50.7844 24.5713 58.7696C24.5713 66.7548 25.784 73.546 28.2094 79.1431C30.6348 84.7402 34.0677 89.0126 38.5081 91.9604C42.9485 94.8709 48.1911 96.3262 54.2359 96.3262C59.7211 96.3262 64.404 95.356 68.2847 93.4157C72.2027 91.4381 75.1878 88.6582 77.2401 85.076C79.3296 81.4939 80.3744 77.2587 80.3744 72.3706L85.2999 73.0982H55.7472V54.8516H103.714V69.2922C103.714 79.367 101.587 88.0238 97.3337 95.2627C93.0799 102.464 87.2216 108.024 79.7587 111.942C72.2959 115.823 63.751 117.763 54.124 117.763C43.3776 117.763 33.9371 115.394 25.8027 110.655C17.6682 105.879 11.3248 99.1061 6.7725 90.3373C2.2575 81.5312 0 71.0832 0 58.9935C0 49.7023 1.3433 41.4186 4.02992 34.1423C6.75384 26.8288 10.5599 20.6347 15.448 15.56C20.3361 10.4852 26.0265 6.62324 32.5192 3.97395C39.0118 1.32465 46.0455 0 53.6203 0C60.1129 0 66.1578 0.951511 71.7549 2.85453C77.352 4.72023 82.3148 7.36953 86.6432 10.8024C91.0089 14.2353 94.5724 18.3212 97.3337 23.0601C100.095 27.7616 101.867 32.9483 102.651 38.62H78.0236Z" fill="#F3F3F3"/>
<path d="M153.823 289.689V175.06H178.059V225.602H179.57L220.821 175.06H249.87L207.332 226.386L250.373 289.689H221.38L189.981 242.562L178.059 257.114V289.689H153.823Z" fill="#193CB8"/>
<path d="M133.883 175.06V289.689H109.647V175.06H133.883Z" fill="#193CB8"/>
<path d="M0 195.042V175.06H94.1433V195.042H59.0495V289.689H35.0939V195.042H0Z" fill="#193CB8"/>
</svg>
